Patient4_TMGait_0pt7_02_right_13_GRF.mot
version=1
nRows=52
nColumns=19
inDegrees=no
endheader
time	F1x	F1y	F1z	M1x	M1y	M1z	F2x	F2y	F2z	M2x	M2y	M2z	EC1x	EC1y	EC1z	EC2x	EC2y	EC2z
13.96	-14.3512	719.7849	59.5722	-242.9291	-62.0109	693.5295	-25.0253	5.2287	12.4094	-1.2876	-4.5067	11.7341	-0.0592	0.0182	-0.0073	-0.0462	0.0165	0.9585
13.9717	-10.9975	721.9748	62.7127	-242.9389	-63.3364	698.7394	-16.7921	4.0463	8.4172	-0.65229	-3.0655	8.4594	-0.0592	0.0182	-0.0073	-0.0462	0.0165	0.9585
13.9834	-7.8321	724.1924	65.2798	-242.8711	-64.1539	702.5475	-9.892	3.1482	4.9746	-0.070159	-1.7628	5.8324	-0.0592	0.0182	-0.0073	-0.0462	0.0165	0.9585
13.9951	-4.9578	726.4672	67.1227	-242.794	-64.3862	704.7716	-4.6608	2.5481	2.3054	0.40947	-0.71161	3.9335	-0.0592	0.0182	-0.0073	-0.0462	0.0165	0.9585
14.0069	-2.2819	728.8373	68.1578	-242.7913	-63.9475	705.5002	-1.0932	2.2309	0.43278	0.77842	0.06042	2.7557	-0.0592	0.0182	-0.0073	-0.0462	0.0165	0.9585
14.0186	0.27866	731.3408	68.4513	-242.933	-62.8771	704.9965	1.092	2.1129	-0.74829	1.0372	0.57233	2.1234	-0.0592	0.0182	-0.0073	-0.0462	0.0165	0.9585
14.0303	2.8823	733.9056	68.0562	-243.2403	-61.1769	703.4389	2.1989	2.1428	-1.3884	1.2031	0.87915	1.9075	-0.0592	0.0182	-0.0073	-0.0462	0.0165	0.9585
14.042	5.637	736.368	67.134	-243.6742	-58.9631	700.9582	2.5749	2.1948	-1.6554	1.2758	1.0397	1.8801	-0.0592	0.0182	-0.0073	-0.0462	0.0165	0.9585
14.0537	8.6515	738.5029	65.7996	-244.1571	-56.3101	697.5553	2.4787	2.1899	-1.6995	1.2595	1.1232	1.9021	-0.0592	0.0182	-0.0073	-0.0462	0.0165	0.9585
14.0654	11.9848	740.0793	64.2202	-244.5887	-53.3551	693.2193	2.1449	1.9999	-1.6393	1.1377	1.1769	1.7696	-0.0592	0.0182	-0.0073	-0.0462	0.0165	0.9585
14.0771	15.722	740.9853	62.5254	-244.8992	-50.1894	687.9877	1.7092	1.5264	-1.5674	0.88959	1.2499	1.3343	-0.0592	0.0182	-0.0073	-0.0462	0.0165	0.9585
14.0889	19.883	741.2422	60.8672	-245.0559	-46.9386	682.0127	1.2933	0.65766	-1.5266	0.48404	1.3489	0.42884	-0.0592	0.0182	-0.0073	-0.0462	0.0165	0.9585
14.1006	24.4947	741.0668	59.3801	-245.0865	-43.7087	675.604	0.95324	-0.69039	-1.542	-0.10684	1.4766	-1.0451	-0.0592	0.0182	-0.0073	-0.0462	0.0165	0.9585
14.1123	29.5307	740.8395	58.2019	-245.0694	-40.6186	669.2113	0.75726	-2.5662	-1.59	-0.89678	1.5805	-3.142	-0.0592	0.0182	-0.0073	-0.0462	0.0165	0.9585
14.124	34.8985	740.9919	57.4753	-245.101	-37.8137	663.309	0.75693	-4.8933	-1.6312	-1.8548	1.5933	-5.7628	-0.0592	0.0182	-0.0073	-0.0462	0.0165	0.9585
14.1357	40.4655	741.8518	57.3202	-245.251	-35.4359	658.2728	1.0168	-7.4356	-1.5882	-2.8833	1.401	-8.6437	-0.0592	0.0182	-0.0073	-0.0462	0.0165	0.9585
14.1474	46.0309	743.5259	57.8156	-245.5306	-33.6172	654.2884	1.597	-9.6941	-1.3475	-3.7795	0.85032	-11.2235	-0.0592	0.0182	-0.0073	-0.0462	0.0165	0.9585
14.1591	51.3504	745.9293	58.9424	-245.9045	-32.4191	651.3461	2.5539	-10.8167	-0.76615	-4.1968	-0.2386	-12.531	-0.0592	0.0182	-0.0073	-0.0462	0.0165	0.9585
14.1709	56.1576	748.8031	60.6139	-246.295	-31.8567	649.2782	3.9089	-9.542	0.31142	-3.6189	-2.0485	-11.1205	-0.0592	0.0182	-0.0073	-0.0462	0.0165	0.9585
14.1826	60.2166	751.7263	62.672	-246.5827	-31.8757	647.7374	5.624	-4.1326	2.0419	-1.3404	-4.7324	-5.0039	-0.0592	0.0182	-0.0073	-0.0462	0.0165	0.9585
14.1943	63.3411	754.1442	64.9213	-246.6127	-32.3754	646.2628	7.5592	7.5109	4.5334	3.4949	-8.3399	8.2291	-0.0592	0.0182	-0.0073	-0.0462	0.0165	0.9585
14.206	65.5032	755.3226	67.1334	-246.1852	-33.1825	644.2152	9.3825	27.6773	7.7821	11.8135	-12.7144	31.2297	-0.0592	0.0182	-0.0073	-0.0462	0.0165	0.9585
14.2177	66.773	754.3628	69.0221	-245.0533	-34.0424	640.801	10.541	58.3783	11.5827	24.4233	-17.3718	66.3214	-0.0592	0.0182	-0.0073	-0.0462	0.0165	0.9585
14.2294	67.3654	750.1283	70.2655	-242.9049	-34.631	634.9814	10.1281	100.6305	15.3947	41.7154	-21.3181	114.7007	-0.0592	0.0182	-0.0073	-0.0462	0.0165	0.9585
14.2411	67.5224	741.2913	70.4805	-239.3721	-34.5592	625.5709	6.9038	153.5228	18.3885	63.2798	-23.1047	175.3408	-0.0592	0.0182	-0.0073	-0.0462	0.0165	0.9585
14.2529	67.4506	726.3649	69.3301	-234.0328	-33.4955	611.2306	-0.094751	213.3162	19.5327	87.5381	-21.1682	243.9772	-0.0592	0.0182	-0.0073	-0.0462	0.0165	0.9585
14.2646	67.169	703.8054	66.5404	-226.4284	-31.2164	590.6424	-10.1664	273.2681	17.5458	111.6956	-14.3885	312.8169	-0.0592	0.0182	-0.0073	-0.0462	0.0165	0.9585
14.2763	66.5347	672.2568	62.0588	-216.1318	-27.7424	562.6769	-21.1263	325.8461	12.0357	132.7101	-3.3274	372.9874	-0.0592	0.0182	-0.0073	-0.0462	0.0165	0.9585
14.288	65.2324	631.0741	56.037	-202.9096	-23.3023	526.8776	-30.9488	366.9931	4.1306	148.9765	9.8495	419.5606	-0.0592	0.0182	-0.0073	-0.0462	0.0165	0.9585
14.2997	63.0178	580.6193	48.8575	-186.8275	-18.2844	483.6115	-38.5327	397.0495	-4.9024	160.6822	23.2348	452.7346	-0.0592	0.0182	-0.0073	-0.0462	0.0165	0.9585
14.3114	59.7085	522.3395	41.0426	-168.2837	-13.1546	434.1566	-43.5066	419.3814	-13.8279	169.2437	35.3054	476.3238	-0.0592	0.0182	-0.0073	-0.0462	0.0165	0.9585
14.3231	55.2485	458.5432	33.1078	-147.9572	-8.323	380.4501	-45.9885	438.2919	-21.4953	176.4652	44.8647	495.2647	-0.0592	0.0182	-0.0073	-0.0462	0.0165	0.9585
14.3349	49.6206	392.0857	25.559	-126.7144	-4.1788	324.879	-46.3822	457.5516	-27.3293	183.9009	51.4599	513.9072	-0.0592	0.0182	-0.0073	-0.0462	0.0165	0.9585
14.3466	42.9211	325.9694	18.772	-105.4977	-0.98125	269.8895	-45.1961	479.6086	-31.1974	192.5398	55.1968	535.0774	-0.0592	0.0182	-0.0073	-0.0462	0.0165	0.9585
14.3583	35.3825	263.1112	13.0367	-85.2408	1.1119	217.8551	-43.0785	505.5811	-33.6605	202.7799	56.9613	560.1651	-0.0592	0.0182	-0.0073	-0.0462	0.0165	0.9585
14.37	27.4973	205.9731	8.4509	-66.758	2.1824	170.7145	-40.5933	535.4797	-35.5222	214.547	57.8843	589.3118	-0.0592	0.0182	-0.0073	-0.0462	0.0165	0.9585
14.3817	19.8524	156.2523	5.0584	-50.6236	2.3867	129.777	-38.2628	568.4645	-37.7079	227.4159	59.1726	621.7436	-0.0592	0.0182	-0.0073	-0.0462	0.0165	0.9585
14.3934	13.0324	114.6711	2.743	-37.0997	2.0065	95.5458	-36.4522	603.1175	-40.8589	240.7601	61.6624	655.9935	-0.0592	0.0182	-0.0073	-0.0462	0.0165	0.9585
14.4051	7.3777	81.0443	1.3038	-26.1523	1.3095	67.8444	-35.4427	637.8824	-45.2007	253.9316	65.6958	690.4342	-0.0592	0.0182	-0.0073	-0.0462	0.0165	0.9585
14.4169	3.0138	54.6532	0.47608	-17.5683	0.5452	46.056	-35.2838	671.388	-50.4348	266.409	70.9742	723.5864	-0.0592	0.0182	-0.0073	-0.0462	0.0165	0.9585
14.4286	-0.092034	34.5404	0.035587	-11.0448	-0.11762	29.4155	-35.8551	702.7298	-55.921	277.8768	76.7742	754.4664	-0.0592	0.0182	-0.0073	-0.0462	0.0165	0.9585
14.4403	-2.014	19.744	-0.16308	-6.268	-0.59032	17.1475	-36.892	731.2003	-61.0432	288.1116	82.3441	782.2659	-0.0592	0.0182	-0.0073	-0.0462	0.0165	0.9585
14.452	-2.9042	9.4236	-0.22767	-2.956	-0.8325	8.5683	-38.1448	756.0519	-65.4244	296.8585	87.1819	806.172	-0.0592	0.0182	-0.0073	-0.0462	0.0165	0.9585
14.4637	-2.9827	2.7756	-0.2005	-0.8381	-0.88532	3.0092	-39.3374	776.3744	-69.011	303.7856	91.1122	825.2093	-0.0592	0.0182	-0.0073	-0.0462	0.0165	0.9585
14.4754	-2.6142	-0.96589	-0.14587	0.34212	-0.80814	-0.14936	-40.2888	791.3056	-71.8511	308.5713	94.1031	838.4882	-0.0592	0.0182	-0.0073	-0.0462	0.0165	0.9585
14.4871	-2.0473	-2.6459	-0.0652	0.85928	-0.6877	-1.5923	-40.85	800.291	-74.011	311.0175	96.1712	845.4341	-0.0592	0.0182	-0.0073	-0.0462	0.0165	0.9585
14.4989	-1.4576	-2.9737	0.012139	0.94191	-0.55911	-1.8905	-40.9461	803.4004	-75.4873	311.1706	97.3	846.1363	-0.0592	0.0182	-0.0073	-0.0462	0.0165	0.9585
14.5106	-0.92871	-2.5413	0.088917	0.78048	-0.45645	-1.5601	-40.5233	801.302	-76.2789	309.3167	97.4884	841.291	-0.0592	0.0182	-0.0073	-0.0462	0.0165	0.9585
14.5223	-0.51264	-1.7657	0.15292	0.51052	-0.38378	-0.94848	-39.5811	795.1142	-76.4127	305.9109	96.7791	832.0653	-0.0592	0.0182	-0.0073	-0.0462	0.0165	0.9585
14.534	-0.2067	-0.91109	0.19963	0.21784	-0.33445	-0.28566	-38.1383	786.1073	-75.9838	301.4612	95.2913	819.758	-0.0592	0.0182	-0.0073	-0.0462	0.0165	0.9585
14.5457	-0.014997	-0.12611	0.23655	-0.048059	-0.31248	0.32774	-36.2476	775.5218	-75.0997	296.4569	93.1669	805.6265	-0.0592	0.0182	-0.0073	-0.0462	0.0165	0.9585
14.5574	0.098939	0.53522	0.25372	-0.26932	-0.29261	0.85336	-33.9623	764.4416	-73.8997	291.3249	90.5779	790.7564	-0.0592	0.0182	-0.0073	-0.0462	0.0165	0.9585
